<mxfile host="Electron" agent="Mozilla/5.0 (Windows NT 10.0; Win64; x64) AppleWebKit/537.36 (KHTML, like Gecko) draw.io/26.1.1 Chrome/132.0.6834.210 Electron/34.3.3 Safari/537.36" version="26.1.1">
  <diagram name="Seite-1" id="cCDGePt9YzzGj_ueyJfx">
    <mxGraphModel dx="2074" dy="1204" grid="1" gridSize="10" guides="1" tooltips="1" connect="1" arrows="1" fold="1" page="1" pageScale="1" pageWidth="827" pageHeight="1169" math="0" shadow="0">
      <root>
        <mxCell id="0" />
        <mxCell id="1" parent="0" />
        <mxCell id="7DeA5GTDcZq3nSkFMADQ-1" value="" style="rounded=0;whiteSpace=wrap;html=1;" parent="1" vertex="1">
          <mxGeometry x="120" y="80" width="600" height="400" as="geometry" />
        </mxCell>
        <mxCell id="7DeA5GTDcZq3nSkFMADQ-34" value="" style="rounded=0;whiteSpace=wrap;html=1;fillColor=#dae8fc;strokeColor=none;" parent="1" vertex="1">
          <mxGeometry x="120" y="80" width="600" height="50" as="geometry" />
        </mxCell>
        <mxCell id="7DeA5GTDcZq3nSkFMADQ-2" value="&lt;div&gt;&lt;br&gt;&lt;/div&gt;&lt;div&gt;&lt;br&gt;&lt;/div&gt;&lt;div&gt;1&lt;span style=&quot;white-space: pre;&quot;&gt;&#x9;&lt;/span&gt;Regel(A||B||C)&lt;span style=&quot;white-space: pre;&quot;&gt;&#x9;&lt;/span&gt;Suche nach Zeichen &#39;A&#39;, &#39;B&#39;, oder &#39;C&#39;&lt;/div&gt;&lt;div&gt;2&lt;span style=&quot;white-space: pre;&quot;&gt;&#x9;&lt;/span&gt;Regel(2022)&lt;span style=&quot;white-space: pre;&quot;&gt;&#x9;&lt;/span&gt;Suche nach Zeichen &#39;2022&#39;&lt;br&gt;3&lt;span style=&quot;white-space: pre;&quot;&gt;&#x9;&lt;/span&gt;Regel(.txt)&lt;span style=&quot;white-space: pre;&quot;&gt;&#x9;&lt;/span&gt;Suche nach Muster &#39;.&#39;,Liste[Kleinbuchstaben]&lt;/div&gt;&lt;div&gt;...&lt;/div&gt;" style="rounded=0;whiteSpace=wrap;html=1;align=left;verticalAlign=top;" parent="1" vertex="1">
          <mxGeometry x="130" y="130" width="580" height="140" as="geometry" />
        </mxCell>
        <mxCell id="7DeA5GTDcZq3nSkFMADQ-3" value="#&lt;span style=&quot;white-space: pre;&quot;&gt;&#x9;&lt;/span&gt;Datensatz&lt;span style=&quot;white-space: pre;&quot;&gt;&#x9;&lt;/span&gt;Regelsatz 1&lt;span style=&quot;white-space: pre;&quot;&gt;&#x9;&lt;/span&gt;Regelsatz 2&lt;span style=&quot;white-space: pre;&quot;&gt;&#x9;&lt;/span&gt;Regelsatz 3&lt;br&gt;Datensatz 1&lt;span style=&quot;white-space: pre;&quot;&gt;&#x9;&lt;/span&gt;&lt;span style=&quot;white-space: pre;&quot;&gt;&#x9;&lt;/span&gt;A&lt;span style=&quot;white-space: pre;&quot;&gt;&#x9;&lt;/span&gt;&lt;span style=&quot;white-space: pre;&quot;&gt;&#x9;&lt;/span&gt;&lt;span style=&quot;white-space: pre;&quot;&gt;&#x9;&lt;/span&gt;2022&lt;span style=&quot;white-space: pre;&quot;&gt;&#x9;&lt;/span&gt;&lt;span style=&quot;white-space: pre;&quot;&gt;&#x9;&lt;/span&gt;.pdf&lt;div&gt;Datensatz 2&lt;span style=&quot;white-space: pre;&quot;&gt;&#x9;&lt;/span&gt;&lt;span style=&quot;white-space: pre;&quot;&gt;&#x9;&lt;/span&gt;C&lt;span style=&quot;white-space: pre;&quot;&gt;&#x9;&lt;/span&gt;&lt;span style=&quot;white-space: pre;&quot;&gt;&#x9;&lt;/span&gt;&lt;span style=&quot;white-space: pre;&quot;&gt;&#x9;&lt;/span&gt;NULL&lt;span style=&quot;white-space: pre;&quot;&gt;&#x9;&lt;/span&gt;&lt;span style=&quot;white-space: pre;&quot;&gt;&#x9;&lt;/span&gt;.pdf&lt;/div&gt;&lt;div&gt;Datensatz 3&lt;span style=&quot;white-space: pre;&quot;&gt;&#x9;&lt;/span&gt;&lt;span style=&quot;white-space: pre;&quot;&gt;&#x9;&lt;/span&gt;A&lt;span style=&quot;white-space: pre;&quot;&gt;&#x9;&lt;/span&gt;&lt;span style=&quot;white-space: pre;&quot;&gt;&#x9;&lt;/span&gt;&lt;span style=&quot;white-space: pre;&quot;&gt;&#x9;&lt;/span&gt;2022&lt;span style=&quot;white-space: pre;&quot;&gt;&#x9;&lt;/span&gt;&lt;span style=&quot;white-space: pre;&quot;&gt;&#x9;&lt;/span&gt;.jpeg&lt;br&gt;...&lt;/div&gt;" style="rounded=0;whiteSpace=wrap;html=1;align=left;verticalAlign=top;" parent="1" vertex="1">
          <mxGeometry x="130" y="290" width="580" height="180" as="geometry" />
        </mxCell>
        <mxCell id="7DeA5GTDcZq3nSkFMADQ-4" value="Neu" style="rounded=1;whiteSpace=wrap;html=1;" parent="1" vertex="1">
          <mxGeometry x="130" y="90" width="120" height="30" as="geometry" />
        </mxCell>
        <mxCell id="7DeA5GTDcZq3nSkFMADQ-5" value="Ordner hinzufügen" style="rounded=1;whiteSpace=wrap;html=1;" parent="1" vertex="1">
          <mxGeometry x="270" y="90" width="120" height="30" as="geometry" />
        </mxCell>
        <mxCell id="7DeA5GTDcZq3nSkFMADQ-6" value="Vorschau" style="rounded=1;whiteSpace=wrap;html=1;" parent="1" vertex="1">
          <mxGeometry x="410" y="90" width="120" height="30" as="geometry" />
        </mxCell>
        <mxCell id="7DeA5GTDcZq3nSkFMADQ-8" value="" style="rounded=0;whiteSpace=wrap;html=1;" parent="1" vertex="1">
          <mxGeometry x="130" y="130" width="580" height="20" as="geometry" />
        </mxCell>
        <mxCell id="7DeA5GTDcZq3nSkFMADQ-9" value="+ Hinzufügen" style="rounded=1;whiteSpace=wrap;html=1;" parent="1" vertex="1">
          <mxGeometry x="130" y="130" width="120" height="20" as="geometry" />
        </mxCell>
        <mxCell id="7DeA5GTDcZq3nSkFMADQ-10" value="- Entfernen" style="rounded=1;whiteSpace=wrap;html=1;" parent="1" vertex="1">
          <mxGeometry x="250" y="130" width="120" height="20" as="geometry" />
        </mxCell>
        <mxCell id="7DeA5GTDcZq3nSkFMADQ-11" value="" style="rounded=0;whiteSpace=wrap;html=1;" parent="1" vertex="1">
          <mxGeometry x="960" y="80" width="600" height="400" as="geometry" />
        </mxCell>
        <mxCell id="7DeA5GTDcZq3nSkFMADQ-35" value="" style="rounded=0;whiteSpace=wrap;html=1;fillColor=#dae8fc;strokeColor=none;" parent="1" vertex="1">
          <mxGeometry x="960" y="80" width="600" height="50" as="geometry" />
        </mxCell>
        <mxCell id="7DeA5GTDcZq3nSkFMADQ-14" value="ZURÜCK" style="rounded=1;whiteSpace=wrap;html=1;" parent="1" vertex="1">
          <mxGeometry x="970" y="90" width="120" height="30" as="geometry" />
        </mxCell>
        <mxCell id="7DeA5GTDcZq3nSkFMADQ-15" value="Excel-Datei&lt;br&gt;generieren" style="rounded=1;whiteSpace=wrap;html=1;" parent="1" vertex="1">
          <mxGeometry x="1110" y="90" width="120" height="30" as="geometry" />
        </mxCell>
        <mxCell id="7DeA5GTDcZq3nSkFMADQ-30" value="" style="verticalLabelPosition=bottom;shadow=0;dashed=0;align=center;html=1;verticalAlign=top;strokeWidth=1;shape=mxgraph.mockup.navigation.scrollBar;strokeColor=#999999;barPos=20;fillColor2=#99ddff;strokeColor2=none;direction=north;" parent="1" vertex="1">
          <mxGeometry x="690" y="150" width="20" height="100" as="geometry" />
        </mxCell>
        <mxCell id="7DeA5GTDcZq3nSkFMADQ-31" value="" style="verticalLabelPosition=bottom;shadow=0;dashed=0;align=center;html=1;verticalAlign=top;strokeWidth=1;shape=mxgraph.mockup.navigation.scrollBar;strokeColor=#999999;barPos=20;fillColor2=#99ddff;strokeColor2=none;" parent="1" vertex="1">
          <mxGeometry x="130" y="250" width="560" height="20" as="geometry" />
        </mxCell>
        <mxCell id="7DeA5GTDcZq3nSkFMADQ-32" value="" style="verticalLabelPosition=bottom;shadow=0;dashed=0;align=center;html=1;verticalAlign=top;strokeWidth=1;shape=mxgraph.mockup.navigation.scrollBar;strokeColor=#999999;barPos=20;fillColor2=#99ddff;strokeColor2=none;direction=north;" parent="1" vertex="1">
          <mxGeometry x="690" y="290" width="20" height="160" as="geometry" />
        </mxCell>
        <mxCell id="7DeA5GTDcZq3nSkFMADQ-33" value="" style="verticalLabelPosition=bottom;shadow=0;dashed=0;align=center;html=1;verticalAlign=top;strokeWidth=1;shape=mxgraph.mockup.navigation.scrollBar;strokeColor=#999999;barPos=20;fillColor2=#99ddff;strokeColor2=none;" parent="1" vertex="1">
          <mxGeometry x="130" y="450" width="560" height="20" as="geometry" />
        </mxCell>
        <mxCell id="7DeA5GTDcZq3nSkFMADQ-36" value="WORK IN PROGRESS" style="rounded=0;whiteSpace=wrap;html=1;" parent="1" vertex="1">
          <mxGeometry x="120" y="520" width="600" height="400" as="geometry" />
        </mxCell>
        <mxCell id="7DeA5GTDcZq3nSkFMADQ-37" value="" style="rounded=0;whiteSpace=wrap;html=1;fillColor=#dae8fc;strokeColor=none;" parent="1" vertex="1">
          <mxGeometry x="120" y="520" width="600" height="50" as="geometry" />
        </mxCell>
        <mxCell id="7DeA5GTDcZq3nSkFMADQ-38" value="ZURÜCK" style="rounded=1;whiteSpace=wrap;html=1;" parent="1" vertex="1">
          <mxGeometry x="130" y="530" width="120" height="30" as="geometry" />
        </mxCell>
        <mxCell id="7DeA5GTDcZq3nSkFMADQ-39" value="BUTTON" style="rounded=1;whiteSpace=wrap;html=1;" parent="1" vertex="1">
          <mxGeometry x="270" y="530" width="120" height="30" as="geometry" />
        </mxCell>
        <mxCell id="7DeA5GTDcZq3nSkFMADQ-40" value="BUTTON" style="rounded=1;whiteSpace=wrap;html=1;" parent="1" vertex="1">
          <mxGeometry x="410" y="530" width="120" height="30" as="geometry" />
        </mxCell>
        <mxCell id="7DeA5GTDcZq3nSkFMADQ-42" value="HAUPTSCREEN" style="rounded=0;whiteSpace=wrap;html=1;horizontal=0;" parent="1" vertex="1">
          <mxGeometry x="40" y="80" width="40" height="400" as="geometry" />
        </mxCell>
        <mxCell id="7DeA5GTDcZq3nSkFMADQ-43" value="REGELSCREEN" style="rounded=0;whiteSpace=wrap;html=1;horizontal=0;" parent="1" vertex="1">
          <mxGeometry x="40" y="520" width="40" height="400" as="geometry" />
        </mxCell>
        <mxCell id="7DeA5GTDcZq3nSkFMADQ-44" value="VORSCHAUSCREEN" style="rounded=0;whiteSpace=wrap;html=1;horizontal=0;" parent="1" vertex="1">
          <mxGeometry x="880" y="80" width="40" height="400" as="geometry" />
        </mxCell>
        <mxCell id="7DeA5GTDcZq3nSkFMADQ-46" value="" style="rounded=0;whiteSpace=wrap;html=1;fillColor=none;" parent="1" vertex="1">
          <mxGeometry x="960" y="80" width="600" height="400" as="geometry" />
        </mxCell>
        <mxCell id="7DeA5GTDcZq3nSkFMADQ-55" value="Assets" style="childLayout=tableLayout;recursiveResize=0;strokeColor=#98bf21;fillColor=#A7C942;shadow=1;" parent="1" vertex="1">
          <mxGeometry x="970" y="145" width="560" height="305" as="geometry" />
        </mxCell>
        <mxCell id="7DeA5GTDcZq3nSkFMADQ-56" style="shape=tableRow;horizontal=0;startSize=0;swimlaneHead=0;swimlaneBody=0;top=0;left=0;bottom=0;right=0;dropTarget=0;collapsible=0;recursiveResize=0;expand=0;fontStyle=0;strokeColor=inherit;fillColor=#ffffff;" parent="7DeA5GTDcZq3nSkFMADQ-55" vertex="1">
          <mxGeometry width="560" height="63" as="geometry" />
        </mxCell>
        <mxCell id="7DeA5GTDcZq3nSkFMADQ-57" value="Datensatz 1" style="connectable=0;recursiveResize=0;strokeColor=inherit;fillColor=#A7C942;align=center;fontStyle=1;fontColor=#FFFFFF;html=1;" parent="7DeA5GTDcZq3nSkFMADQ-56" vertex="1">
          <mxGeometry width="185" height="63" as="geometry">
            <mxRectangle width="185" height="63" as="alternateBounds" />
          </mxGeometry>
        </mxCell>
        <mxCell id="7DeA5GTDcZq3nSkFMADQ-58" value="Datensatz 2" style="connectable=0;recursiveResize=0;strokeColor=inherit;fillColor=#A7C942;align=center;fontStyle=1;fontColor=#FFFFFF;html=1;" parent="7DeA5GTDcZq3nSkFMADQ-56" vertex="1">
          <mxGeometry x="185" width="190" height="63" as="geometry">
            <mxRectangle width="190" height="63" as="alternateBounds" />
          </mxGeometry>
        </mxCell>
        <mxCell id="7DeA5GTDcZq3nSkFMADQ-59" value="Datensatz 3" style="connectable=0;recursiveResize=0;strokeColor=inherit;fillColor=#A7C942;align=center;fontStyle=1;fontColor=#FFFFFF;html=1;" parent="7DeA5GTDcZq3nSkFMADQ-56" vertex="1">
          <mxGeometry x="375" width="185" height="63" as="geometry">
            <mxRectangle width="185" height="63" as="alternateBounds" />
          </mxGeometry>
        </mxCell>
        <mxCell id="7DeA5GTDcZq3nSkFMADQ-60" value="" style="shape=tableRow;horizontal=0;startSize=0;swimlaneHead=0;swimlaneBody=0;top=0;left=0;bottom=0;right=0;dropTarget=0;collapsible=0;recursiveResize=0;expand=0;fontStyle=0;strokeColor=inherit;fillColor=#ffffff;" parent="7DeA5GTDcZq3nSkFMADQ-55" vertex="1">
          <mxGeometry y="63" width="560" height="61" as="geometry" />
        </mxCell>
        <mxCell id="7DeA5GTDcZq3nSkFMADQ-61" value="A" style="connectable=0;recursiveResize=0;strokeColor=inherit;fillColor=inherit;align=center;whiteSpace=wrap;html=1;" parent="7DeA5GTDcZq3nSkFMADQ-60" vertex="1">
          <mxGeometry width="185" height="61" as="geometry">
            <mxRectangle width="185" height="61" as="alternateBounds" />
          </mxGeometry>
        </mxCell>
        <mxCell id="7DeA5GTDcZq3nSkFMADQ-62" value="2022" style="connectable=0;recursiveResize=0;strokeColor=inherit;fillColor=inherit;align=center;whiteSpace=wrap;html=1;" parent="7DeA5GTDcZq3nSkFMADQ-60" vertex="1">
          <mxGeometry x="185" width="190" height="61" as="geometry">
            <mxRectangle width="190" height="61" as="alternateBounds" />
          </mxGeometry>
        </mxCell>
        <mxCell id="7DeA5GTDcZq3nSkFMADQ-63" value=".pdf" style="connectable=0;recursiveResize=0;strokeColor=inherit;fillColor=inherit;align=center;whiteSpace=wrap;html=1;" parent="7DeA5GTDcZq3nSkFMADQ-60" vertex="1">
          <mxGeometry x="375" width="185" height="61" as="geometry">
            <mxRectangle width="185" height="61" as="alternateBounds" />
          </mxGeometry>
        </mxCell>
        <mxCell id="7DeA5GTDcZq3nSkFMADQ-64" value="" style="shape=tableRow;horizontal=0;startSize=0;swimlaneHead=0;swimlaneBody=0;top=0;left=0;bottom=0;right=0;dropTarget=0;collapsible=0;recursiveResize=0;expand=0;fontStyle=1;strokeColor=inherit;fillColor=#EAF2D3;" parent="7DeA5GTDcZq3nSkFMADQ-55" vertex="1">
          <mxGeometry y="124" width="560" height="59" as="geometry" />
        </mxCell>
        <mxCell id="7DeA5GTDcZq3nSkFMADQ-65" value="C" style="connectable=0;recursiveResize=0;strokeColor=inherit;fillColor=inherit;whiteSpace=wrap;html=1;" parent="7DeA5GTDcZq3nSkFMADQ-64" vertex="1">
          <mxGeometry width="185" height="59" as="geometry">
            <mxRectangle width="185" height="59" as="alternateBounds" />
          </mxGeometry>
        </mxCell>
        <mxCell id="7DeA5GTDcZq3nSkFMADQ-66" value="" style="connectable=0;recursiveResize=0;strokeColor=inherit;fillColor=inherit;whiteSpace=wrap;html=1;" parent="7DeA5GTDcZq3nSkFMADQ-64" vertex="1">
          <mxGeometry x="185" width="190" height="59" as="geometry">
            <mxRectangle width="190" height="59" as="alternateBounds" />
          </mxGeometry>
        </mxCell>
        <mxCell id="7DeA5GTDcZq3nSkFMADQ-67" value=".pdf" style="connectable=0;recursiveResize=0;strokeColor=inherit;fillColor=inherit;whiteSpace=wrap;html=1;" parent="7DeA5GTDcZq3nSkFMADQ-64" vertex="1">
          <mxGeometry x="375" width="185" height="59" as="geometry">
            <mxRectangle width="185" height="59" as="alternateBounds" />
          </mxGeometry>
        </mxCell>
        <mxCell id="7DeA5GTDcZq3nSkFMADQ-68" value="" style="shape=tableRow;horizontal=0;startSize=0;swimlaneHead=0;swimlaneBody=0;top=0;left=0;bottom=0;right=0;dropTarget=0;collapsible=0;recursiveResize=0;expand=0;fontStyle=0;strokeColor=inherit;fillColor=#ffffff;" parent="7DeA5GTDcZq3nSkFMADQ-55" vertex="1">
          <mxGeometry y="183" width="560" height="63" as="geometry" />
        </mxCell>
        <mxCell id="7DeA5GTDcZq3nSkFMADQ-69" value="A" style="connectable=0;recursiveResize=0;strokeColor=inherit;fillColor=inherit;fontStyle=0;align=center;whiteSpace=wrap;html=1;" parent="7DeA5GTDcZq3nSkFMADQ-68" vertex="1">
          <mxGeometry width="185" height="63" as="geometry">
            <mxRectangle width="185" height="63" as="alternateBounds" />
          </mxGeometry>
        </mxCell>
        <mxCell id="7DeA5GTDcZq3nSkFMADQ-70" value="2022" style="connectable=0;recursiveResize=0;strokeColor=inherit;fillColor=inherit;fontStyle=0;align=center;whiteSpace=wrap;html=1;" parent="7DeA5GTDcZq3nSkFMADQ-68" vertex="1">
          <mxGeometry x="185" width="190" height="63" as="geometry">
            <mxRectangle width="190" height="63" as="alternateBounds" />
          </mxGeometry>
        </mxCell>
        <mxCell id="7DeA5GTDcZq3nSkFMADQ-71" value=".jpeg" style="connectable=0;recursiveResize=0;strokeColor=inherit;fillColor=inherit;fontStyle=0;align=center;whiteSpace=wrap;html=1;" parent="7DeA5GTDcZq3nSkFMADQ-68" vertex="1">
          <mxGeometry x="375" width="185" height="63" as="geometry">
            <mxRectangle width="185" height="63" as="alternateBounds" />
          </mxGeometry>
        </mxCell>
        <mxCell id="7DeA5GTDcZq3nSkFMADQ-72" value="" style="shape=tableRow;horizontal=0;startSize=0;swimlaneHead=0;swimlaneBody=0;top=0;left=0;bottom=0;right=0;dropTarget=0;collapsible=0;recursiveResize=0;expand=0;fontStyle=1;strokeColor=inherit;fillColor=#EAF2D3;" parent="7DeA5GTDcZq3nSkFMADQ-55" vertex="1">
          <mxGeometry y="246" width="560" height="59" as="geometry" />
        </mxCell>
        <mxCell id="7DeA5GTDcZq3nSkFMADQ-73" value="" style="connectable=0;recursiveResize=0;strokeColor=inherit;fillColor=inherit;whiteSpace=wrap;html=1;" parent="7DeA5GTDcZq3nSkFMADQ-72" vertex="1">
          <mxGeometry width="185" height="59" as="geometry">
            <mxRectangle width="185" height="59" as="alternateBounds" />
          </mxGeometry>
        </mxCell>
        <mxCell id="7DeA5GTDcZq3nSkFMADQ-74" value="" style="connectable=0;recursiveResize=0;strokeColor=inherit;fillColor=inherit;whiteSpace=wrap;html=1;" parent="7DeA5GTDcZq3nSkFMADQ-72" vertex="1">
          <mxGeometry x="185" width="190" height="59" as="geometry">
            <mxRectangle width="190" height="59" as="alternateBounds" />
          </mxGeometry>
        </mxCell>
        <mxCell id="7DeA5GTDcZq3nSkFMADQ-75" value="" style="connectable=0;recursiveResize=0;strokeColor=inherit;fillColor=inherit;whiteSpace=wrap;html=1;" parent="7DeA5GTDcZq3nSkFMADQ-72" vertex="1">
          <mxGeometry x="375" width="185" height="59" as="geometry">
            <mxRectangle width="185" height="59" as="alternateBounds" />
          </mxGeometry>
        </mxCell>
        <mxCell id="7DeA5GTDcZq3nSkFMADQ-97" value="" style="verticalLabelPosition=bottom;shadow=0;dashed=0;align=center;html=1;verticalAlign=top;strokeWidth=1;shape=mxgraph.mockup.navigation.scrollBar;strokeColor=#999999;barPos=20;fillColor2=#99ddff;strokeColor2=none;direction=north;" parent="1" vertex="1">
          <mxGeometry x="1530" y="145" width="20" height="305" as="geometry" />
        </mxCell>
        <mxCell id="7DeA5GTDcZq3nSkFMADQ-98" value="" style="verticalLabelPosition=bottom;shadow=0;dashed=0;align=center;html=1;verticalAlign=top;strokeWidth=1;shape=mxgraph.mockup.navigation.scrollBar;strokeColor=#999999;barPos=20;fillColor2=#99ddff;strokeColor2=none;" parent="1" vertex="1">
          <mxGeometry x="970" y="450" width="560" height="20" as="geometry" />
        </mxCell>
        <mxCell id="iCCtXWxlwDHr7LLGNyOR-6" value="LADEN/SPEICHERN EINES REGELSATZES" style="rounded=0;whiteSpace=wrap;html=1;horizontal=0;" vertex="1" parent="1">
          <mxGeometry x="880" y="520" width="40" height="400" as="geometry" />
        </mxCell>
        <mxCell id="iCCtXWxlwDHr7LLGNyOR-7" value="WORK IN PROGRESS" style="rounded=0;whiteSpace=wrap;html=1;" vertex="1" parent="1">
          <mxGeometry x="960" y="520" width="600" height="400" as="geometry" />
        </mxCell>
        <mxCell id="iCCtXWxlwDHr7LLGNyOR-8" value="" style="rounded=0;whiteSpace=wrap;html=1;fillColor=#dae8fc;strokeColor=none;" vertex="1" parent="1">
          <mxGeometry x="960" y="520" width="600" height="50" as="geometry" />
        </mxCell>
        <mxCell id="iCCtXWxlwDHr7LLGNyOR-9" value="ZURÜCK" style="rounded=1;whiteSpace=wrap;html=1;" vertex="1" parent="1">
          <mxGeometry x="970" y="530" width="120" height="30" as="geometry" />
        </mxCell>
        <mxCell id="iCCtXWxlwDHr7LLGNyOR-10" value="BUTTON" style="rounded=1;whiteSpace=wrap;html=1;" vertex="1" parent="1">
          <mxGeometry x="1110" y="530" width="120" height="30" as="geometry" />
        </mxCell>
        <mxCell id="iCCtXWxlwDHr7LLGNyOR-11" value="BUTTON" style="rounded=1;whiteSpace=wrap;html=1;" vertex="1" parent="1">
          <mxGeometry x="1250" y="530" width="120" height="30" as="geometry" />
        </mxCell>
        <mxCell id="iCCtXWxlwDHr7LLGNyOR-13" value="Ecxel-Datei&lt;br&gt;generieren" style="rounded=1;whiteSpace=wrap;html=1;" vertex="1" parent="1">
          <mxGeometry x="550" y="90" width="120" height="30" as="geometry" />
        </mxCell>
      </root>
    </mxGraphModel>
  </diagram>
</mxfile>
